<svg t="1541498523388" class="icon" viewBox="0 0 1279 1024" version="1.1" xmlns="http://www.w3.org/2000/svg" p-id="5829" height="32" width="32"><path d="M567.830719 15.09526c40.413177-30.437773 73.238226-13.21528 73.238227 37.002782v918.675075c0 50.900141-32.569269 67.696335-73.323487 37.002783L274.792554 787.208622H91.483838A91.739618 91.739618 0 0 1 0 696.151083V326.805336c0-50.303322 40.498437-91.057539 91.483838-91.057539h183.308716L567.830719 15.09526z m528.099621 58.488269a628.706265 628.706265 0 0 1 0 886.787884 69.231013 69.231013 0 0 1-98.219368 0 69.913092 69.913092 0 0 1 0-98.560407 488.965342 488.965342 0 0 0 0-689.75233 69.913092 69.913092 0 0 1 0-98.475147 69.231013 69.231013 0 0 1 98.219368 0zM899.491605 270.789603a349.480198 349.480198 0 0 1 0 492.972555 69.316272 69.316272 0 0 1-98.219368 0 69.913092 69.913092 0 0 1 0-98.645667 209.739275 209.739275 0 0 0 0-295.766481 69.913092 69.913092 0 0 1 0-98.560407 69.316272 69.316272 0 0 1 98.219368 0z" p-id="5830" fill="#ffffff"></path></svg>