<svg t="1552392223668" class="icon" viewBox="0 0 1024 1024" version="1.1" xmlns="http://www.w3.org/2000/svg" p-id="5832" height="16" width="16"><path d="M765.56288 243.69152c-139.63264-140.288-366.6944-140.288-506.96192 0-140.30848 140.30848-140.30848 367.34976 0 506.94144 140.288 140.32896 367.32928 140.32896 506.96192 0C905.87136 611.04128 905.87136 384 765.56288 243.69152zM719.48288 666.60352c10.15808 10.15808 10.15808 27.11552 0 37.96992-10.83392 10.19904-27.79136 10.19904-37.96992 0l-169.10336-169.08288-169.10336 169.08288c-10.83392 10.19904-27.79136 10.19904-37.94944 0-10.8544-10.83392-10.8544-27.79136 0-37.96992l169.10336-169.08288-169.10336-169.08288c-10.8544-10.8544-10.8544-27.79136 0-37.96992 10.15808-10.83392 27.11552-10.83392 37.94944 0l169.10336 169.08288 169.10336-169.08288c10.15808-10.83392 27.11552-10.83392 37.96992 0 10.15808 10.15808 10.15808 27.11552 0 37.96992l-169.10336 169.08288L719.48288 666.60352z" p-id="5833" fill="#d81e06"></path></svg>