<svg t="1552392774172" class="icon" viewBox="0 0 1024 1024" version="1.1" xmlns="http://www.w3.org/2000/svg" p-id="820" height="30" width="30"><path d="M0 512a512 512 0 1 0 1024 0A512 512 0 1 0 0 512z" fill="#cdcdcd" p-id="821"></path><path d="M526.4 217.6L355.2 363.2H196.8c-11.2 0-20.8 9.6-20.8 20.8v252.8c0 11.2 9.6 20.8 20.8 20.8h156.8l172.8 145.6c11.2 9.6 27.2 1.6 27.2-12.8V232c1.6-16-16-22.4-27.2-14.4zM624 659.2c-9.6 0-17.6-4.8-22.4-11.2-9.6-12.8-6.4-30.4 6.4-40 30.4-22.4 49.6-57.6 49.6-96S640 438.4 608 416c-12.8-9.6-16-27.2-6.4-40s27.2-16 40-6.4c44.8 32 72 86.4 72 140.8 0 56-27.2 108.8-72 140.8-6.4 6.4-11.2 8-17.6 8z" fill="#FFFFFF" p-id="822"></path><path d="M707.2 758.4c-9.6 0-17.6-4.8-22.4-11.2-9.6-12.8-6.4-30.4 6.4-40C753.6 662.4 792 588.8 792 512c0-76.8-36.8-150.4-100.8-195.2-12.8-9.6-16-27.2-6.4-40s27.2-16 40-6.4C801.6 326.4 848 416 848 512s-46.4 185.6-124.8 241.6c-3.2 3.2-9.6 4.8-16 4.8z" fill="#FFFFFF" p-id="823"></path></svg>