<svg t="1552392935247" class="icon" viewBox="0 0 1024 1024" version="1.1" xmlns="http://www.w3.org/2000/svg" p-id="5165" height="18" width="18"><path d="M1024 210.528c-0.944 0.496-1.856 1.024-2.752 1.6l-103.744 69.312Q497.6 564.8 496.928 564.336L73.12 275.392 0 225.888V208a64 64 0 0 1 64-64h896a64 64 0 0 1 64 64z m0 76.8V848a64 64 0 0 1-64 64H64a64 64 0 0 1-64-64V303.2l37.12 25.152 423.776 288.848a65.92 65.92 0 0 0 74.016 0.256L953.376 334.4c3.008-2.048 26.656-17.856 70.624-47.2z" fill="#ffffff" p-id="5166"></path></svg>