<svg t="1541578184102" class="icon" viewBox="0 0 1024 1024" version="1.1" xmlns="http://www.w3.org/2000/svg" p-id="2703" height="60" width="60"><path d="M506.26 67C266.05 67 67 266.05 67 517.74 67 758 266.05 957 506.26 957 758 957 957 758 957 517.74 957 266.05 758 67 506.26 67z m-8.61 239.25h28.7c10.53 0 19.15 8.61 18.19 19.14L534 599.09a9.59 9.59 0 0 1-9.57 9.57h-25.82c-5.75 0-9.58-3.83-9.58-9.57l-9.57-273.7c-0.95-10.53 7.66-19.14 18.19-19.14zM512 717.75a33.5 33.5 0 1 1 33.5-33.49 33.9 33.9 0 0 1-33.5 33.49z" fill="#3A3A3A" p-id="2704"></path></svg>