<svg t="1541582891192" class="icon" viewBox="0 0 1024 1024" version="1.1" xmlns="http://www.w3.org/2000/svg" p-id="2828" height="32" width="32"><path d="M574.569 513.724l366.308-364.411c17.321-17.233 17.41-45.159 0.177-62.481-17.277-17.364-45.159-17.41-62.481-0.177l-366.399 364.454-363.216-364.321c-17.188-17.233-45.159-17.321-62.481-0.089-17.277 17.233-17.321 45.203-0.089 62.526l363.129 364.233-366.132 364.188c-17.321 17.233-17.41 45.159-0.177 62.481 8.617 8.66 19.972 13.035 31.329 13.035 11.267 0 22.535-4.286 31.151-12.858l366.221-364.276 366.53 367.635c8.617 8.66 19.929 12.991 31.283 12.991 11.312 0 22.579-4.331 31.197-12.902 17.277-17.233 17.321-45.159 0.089-62.481l-366.442-367.547z" p-id="2829" fill="#ffffff"></path></svg>