<svg t="1552379456335" class="icon" viewBox="0 0 1024 1024" version="1.1" xmlns="http://www.w3.org/2000/svg" p-id="1615" height="64" width="64"><path d="M511.805 63.921c-247.423 0-447.999 200.576-447.999 448s200.576 448 447.999 448c247.424 0 448.001-200.576 448.001-448 0-247.423-200.577-448-448.001-448z m0 856c-225.332 0-407.999-182.668-407.999-408s182.667-408 407.999-408c225.332 0 408.001 182.667 408.001 408s-182.669 408-408.001 408z" fill="#ffffff" p-id="1616"></path><path d="M531.625 639.965l22.142-448.181h-84.014l22.122 448.181z" fill="#ffffff" p-id="1617"></path><path d="M512.091 771.576m-59.997 0a59.997 59.997 0 1 0 119.994 0 59.997 59.997 0 1 0-119.994 0Z" fill="#ffffff" p-id="1618"></path></svg>