<svg t="1551950246362" class="icon" viewBox="0 0 1024 1024" version="1.1" xmlns="http://www.w3.org/2000/svg" p-id="2698" height="24" width="24"><path d="M997.371904 485.899264 537.046016 485.899264 537.046016 25.573376c0 0 1.871872-25.573376-25.573376-25.573376-22.452224 0-25.5744 25.573376-25.5744 25.573376l0 460.325888L25.573376 485.899264c0 0-25.573376 0.600064-25.573376 24.675328 0 27.072512 25.573376 26.472448 25.573376 26.472448l460.325888 0 0 460.325888c0 0-0.749568 25.573376 24.451072 25.573376 25.947136 0 26.69568-25.573376 26.69568-25.573376L537.046016 537.046016l460.325888 0c0 0 25.573376 0.600064 25.573376-26.472448C1022.94528 485.302272 997.371904 485.899264 997.371904 485.899264z" p-id="2699"></path></svg>