<svg t="1551950320575" class="icon" viewBox="0 0 1024 1024" version="1.1" xmlns="http://www.w3.org/2000/svg" p-id="3667" height="24" width="24"><path d="M171.9996875 192.1803125a20.2003125 20.2003125 0 0 1 20.180625-20.180625H392v-39.999375H192.1803125a60.1996875 60.1996875 0 0 0-60.18 60.18V392h39.999375V192.1803125z m20.180625 659.82a20.2003125 20.2003125 0 0 1-20.180625-20.180625V632h-39.999375v199.8196875a60.1996875 60.1996875 0 0 0 60.18 60.18H392v-39.999375H192.1803125zM831.8 171.9996875a20.2003125 20.2003125 0 0 1 20.2003125 20.180625V392h39.999375V192.1803125a60.1996875 60.1996875 0 0 0-60.18-60.18H632v39.999375h199.8196875z m20.2003125 659.82a20.2003125 20.2003125 0 0 1-20.180625 20.180625H632v39.999375h199.8196875a60.1996875 60.1996875 0 0 0 60.18-60.18V632h-39.999375v199.8196875z m-720-339.819375h759.999375v39.999375H132.0003125v-39.999375z" p-id="3668"></path></svg>